<mxfile host="www.draw.io" modified="2020-02-04T03:59:36.512Z" agent="Mozilla/5.0 (Macintosh; Intel Mac OS X 10_13_2) AppleWebKit/537.36 (KHTML, like Gecko) Chrome/79.0.3945.130 Safari/537.36" etag="H_UPK8xgjpQ17JTEiylD" version="12.6.4" type="github">
  <diagram id="VCMJeSt8Zb4wS6YQNSat" name="Page-1">
    <mxGraphModel dx="977" dy="1753" grid="1" gridSize="10" guides="0" tooltips="1" connect="0" arrows="1" fold="1" page="1" pageScale="1" pageWidth="827" pageHeight="1169" math="0" shadow="0">
      <root>
        <mxCell id="0"/>
        <mxCell id="1" parent="0"/>
        <mxCell id="QRuNdLmb7O2Hff4JxLJB-127" value="系统结构图" style="swimlane;html=1;startSize=20;horizontal=1;containerType=tree;shadow=0;comic=0;strokeColor=#000000;strokeWidth=1;align=center;connectable=1;allowArrows=1;resizable=1;rotatable=1;cloneable=1;deletable=0;perimeter=rhombusPerimeter;direction=west;collapsible=0;" vertex="1" parent="1">
          <mxGeometry x="180" y="-1120" width="470" height="430" as="geometry"/>
        </mxCell>
        <mxCell id="QRuNdLmb7O2Hff4JxLJB-3" value="" style="group" vertex="1" connectable="0" parent="QRuNdLmb7O2Hff4JxLJB-127">
          <mxGeometry x="160" y="40" width="120" height="21" as="geometry"/>
        </mxCell>
        <mxCell id="QRuNdLmb7O2Hff4JxLJB-1" value="系统软件主体" style="rounded=0;whiteSpace=wrap;html=1;" vertex="1" parent="QRuNdLmb7O2Hff4JxLJB-3">
          <mxGeometry width="120" height="20.65573770491803" as="geometry"/>
        </mxCell>
        <mxCell id="QRuNdLmb7O2Hff4JxLJB-23" value="" style="edgeStyle=orthogonalEdgeStyle;rounded=0;orthogonalLoop=1;jettySize=auto;html=1;endArrow=none;endFill=0;entryX=0.5;entryY=1;entryDx=0;entryDy=0;" edge="1" parent="QRuNdLmb7O2Hff4JxLJB-127" source="QRuNdLmb7O2Hff4JxLJB-11" target="QRuNdLmb7O2Hff4JxLJB-1">
          <mxGeometry relative="1" as="geometry">
            <mxPoint x="170" y="21" as="targetPoint"/>
            <Array as="points">
              <mxPoint x="170" y="80"/>
              <mxPoint x="220" y="80"/>
            </Array>
          </mxGeometry>
        </mxCell>
        <mxCell id="QRuNdLmb7O2Hff4JxLJB-11" value="数据采集模块" style="rounded=0;whiteSpace=wrap;html=1;" vertex="1" parent="QRuNdLmb7O2Hff4JxLJB-127">
          <mxGeometry x="160" y="101" width="20" height="100" as="geometry"/>
        </mxCell>
        <mxCell id="QRuNdLmb7O2Hff4JxLJB-24" value="参数设置模块" style="rounded=0;whiteSpace=wrap;html=1;" vertex="1" parent="QRuNdLmb7O2Hff4JxLJB-127">
          <mxGeometry x="60" y="101" width="20" height="100" as="geometry"/>
        </mxCell>
        <mxCell id="QRuNdLmb7O2Hff4JxLJB-21" value="" style="edgeStyle=orthogonalEdgeStyle;rounded=0;orthogonalLoop=1;jettySize=auto;html=1;endArrow=none;endFill=0;entryX=0.5;entryY=1;entryDx=0;entryDy=0;" edge="1" parent="QRuNdLmb7O2Hff4JxLJB-127" source="QRuNdLmb7O2Hff4JxLJB-19" target="QRuNdLmb7O2Hff4JxLJB-1">
          <mxGeometry relative="1" as="geometry">
            <Array as="points">
              <mxPoint x="270" y="80"/>
              <mxPoint x="220" y="80"/>
            </Array>
          </mxGeometry>
        </mxCell>
        <mxCell id="QRuNdLmb7O2Hff4JxLJB-28" value="" style="edgeStyle=orthogonalEdgeStyle;rounded=0;orthogonalLoop=1;jettySize=auto;html=1;endArrow=none;endFill=0;exitX=0.5;exitY=1;exitDx=0;exitDy=0;" edge="1" parent="QRuNdLmb7O2Hff4JxLJB-127" source="QRuNdLmb7O2Hff4JxLJB-1" target="QRuNdLmb7O2Hff4JxLJB-27">
          <mxGeometry relative="1" as="geometry">
            <Array as="points">
              <mxPoint x="220" y="80"/>
              <mxPoint x="370" y="80"/>
            </Array>
          </mxGeometry>
        </mxCell>
        <mxCell id="QRuNdLmb7O2Hff4JxLJB-19" value="数据处理模块" style="rounded=0;whiteSpace=wrap;html=1;" vertex="1" parent="QRuNdLmb7O2Hff4JxLJB-127">
          <mxGeometry x="260" y="101" width="20" height="100" as="geometry"/>
        </mxCell>
        <mxCell id="QRuNdLmb7O2Hff4JxLJB-27" value="控制输出模块" style="rounded=0;whiteSpace=wrap;html=1;" vertex="1" parent="QRuNdLmb7O2Hff4JxLJB-127">
          <mxGeometry x="360" y="101" width="20" height="100" as="geometry"/>
        </mxCell>
        <mxCell id="QRuNdLmb7O2Hff4JxLJB-26" value="" style="edgeStyle=orthogonalEdgeStyle;rounded=0;orthogonalLoop=1;jettySize=auto;html=1;endArrow=none;endFill=0;entryX=0.5;entryY=1;entryDx=0;entryDy=0;exitX=0.5;exitY=0;exitDx=0;exitDy=0;" edge="1" parent="QRuNdLmb7O2Hff4JxLJB-127" source="QRuNdLmb7O2Hff4JxLJB-24" target="QRuNdLmb7O2Hff4JxLJB-1">
          <mxGeometry relative="1" as="geometry">
            <mxPoint x="180" y="111" as="sourcePoint"/>
            <mxPoint x="304" y="70" as="targetPoint"/>
            <Array as="points">
              <mxPoint x="70" y="80"/>
              <mxPoint x="220" y="80"/>
            </Array>
          </mxGeometry>
        </mxCell>
        <mxCell id="QRuNdLmb7O2Hff4JxLJB-29" value="开关灯控制信号" style="rounded=0;whiteSpace=wrap;html=1;collapsible=0;" vertex="1" parent="QRuNdLmb7O2Hff4JxLJB-127">
          <mxGeometry x="340" y="241" width="20" height="130" as="geometry"/>
        </mxCell>
        <mxCell id="QRuNdLmb7O2Hff4JxLJB-30" value="窗帘开合控制信号" style="rounded=0;whiteSpace=wrap;html=1;connectable=0;" vertex="1" parent="QRuNdLmb7O2Hff4JxLJB-127">
          <mxGeometry x="380" y="241" width="20" height="130" as="geometry"/>
        </mxCell>
        <mxCell id="QRuNdLmb7O2Hff4JxLJB-31" value="" style="endArrow=none;html=1;entryX=0.5;entryY=1;entryDx=0;entryDy=0;exitX=0.5;exitY=0;exitDx=0;exitDy=0;rounded=0;" edge="1" parent="QRuNdLmb7O2Hff4JxLJB-127" source="QRuNdLmb7O2Hff4JxLJB-29" target="QRuNdLmb7O2Hff4JxLJB-27">
          <mxGeometry width="50" height="50" relative="1" as="geometry">
            <mxPoint x="60" y="430" as="sourcePoint"/>
            <mxPoint x="110" y="380" as="targetPoint"/>
            <Array as="points">
              <mxPoint x="350" y="220"/>
              <mxPoint x="370" y="220"/>
            </Array>
          </mxGeometry>
        </mxCell>
        <mxCell id="QRuNdLmb7O2Hff4JxLJB-33" value="" style="endArrow=none;html=1;entryX=0.5;entryY=1;entryDx=0;entryDy=0;rounded=0;exitX=0.5;exitY=0;exitDx=0;exitDy=0;" edge="1" parent="QRuNdLmb7O2Hff4JxLJB-127" source="QRuNdLmb7O2Hff4JxLJB-30" target="QRuNdLmb7O2Hff4JxLJB-27">
          <mxGeometry width="50" height="50" relative="1" as="geometry">
            <mxPoint x="390" y="240" as="sourcePoint"/>
            <mxPoint x="440" y="190" as="targetPoint"/>
            <Array as="points">
              <mxPoint x="390" y="220"/>
              <mxPoint x="370" y="220"/>
            </Array>
          </mxGeometry>
        </mxCell>
        <mxCell id="QRuNdLmb7O2Hff4JxLJB-36" value="室外照度数据" style="rounded=0;whiteSpace=wrap;html=1;" vertex="1" parent="QRuNdLmb7O2Hff4JxLJB-127">
          <mxGeometry x="160" y="241" width="20" height="130" as="geometry"/>
        </mxCell>
        <mxCell id="QRuNdLmb7O2Hff4JxLJB-40" value="占位感应数据" style="rounded=0;whiteSpace=wrap;html=1;" vertex="1" parent="QRuNdLmb7O2Hff4JxLJB-127">
          <mxGeometry x="120" y="241" width="20" height="130" as="geometry"/>
        </mxCell>
        <mxCell id="QRuNdLmb7O2Hff4JxLJB-37" value="室内照度数据" style="rounded=0;whiteSpace=wrap;html=1;" vertex="1" parent="QRuNdLmb7O2Hff4JxLJB-127">
          <mxGeometry x="200" y="241" width="20" height="130" as="geometry"/>
        </mxCell>
        <mxCell id="QRuNdLmb7O2Hff4JxLJB-38" value="" style="endArrow=none;html=1;entryX=0.5;entryY=1;entryDx=0;entryDy=0;exitX=0.5;exitY=0;exitDx=0;exitDy=0;rounded=0;" edge="1" parent="QRuNdLmb7O2Hff4JxLJB-127" source="QRuNdLmb7O2Hff4JxLJB-40">
          <mxGeometry width="50" height="50" relative="1" as="geometry">
            <mxPoint x="-140" y="430" as="sourcePoint"/>
            <mxPoint x="170" y="201" as="targetPoint"/>
            <Array as="points">
              <mxPoint x="130" y="220"/>
              <mxPoint x="170" y="220"/>
            </Array>
          </mxGeometry>
        </mxCell>
        <mxCell id="QRuNdLmb7O2Hff4JxLJB-39" value="" style="endArrow=none;html=1;rounded=0;exitX=0.5;exitY=0;exitDx=0;exitDy=0;entryX=0.5;entryY=1;entryDx=0;entryDy=0;" edge="1" parent="QRuNdLmb7O2Hff4JxLJB-127" source="QRuNdLmb7O2Hff4JxLJB-37" target="QRuNdLmb7O2Hff4JxLJB-11">
          <mxGeometry width="50" height="50" relative="1" as="geometry">
            <mxPoint x="190" y="240" as="sourcePoint"/>
            <mxPoint x="170" y="201" as="targetPoint"/>
            <Array as="points">
              <mxPoint x="210" y="220"/>
              <mxPoint x="170" y="220"/>
            </Array>
          </mxGeometry>
        </mxCell>
        <mxCell id="QRuNdLmb7O2Hff4JxLJB-43" value="" style="endArrow=none;html=1;entryX=0.5;entryY=1;entryDx=0;entryDy=0;exitX=0.5;exitY=0;exitDx=0;exitDy=0;" edge="1" parent="QRuNdLmb7O2Hff4JxLJB-127" source="QRuNdLmb7O2Hff4JxLJB-36" target="QRuNdLmb7O2Hff4JxLJB-11">
          <mxGeometry width="50" height="50" relative="1" as="geometry">
            <mxPoint x="60" y="440" as="sourcePoint"/>
            <mxPoint x="110" y="390" as="targetPoint"/>
          </mxGeometry>
        </mxCell>
        <mxCell id="QRuNdLmb7O2Hff4JxLJB-155" value="模块关系图" style="swimlane;html=1;startSize=20;horizontal=1;containerType=tree;shadow=0;comic=0;strokeColor=#000000;strokeWidth=1;align=center;connectable=1;allowArrows=1;resizable=1;rotatable=1;cloneable=1;deletable=0;perimeter=rhombusPerimeter;noLabel=0;direction=west;collapsible=0;" vertex="1" parent="1">
          <mxGeometry x="160" y="-640" width="520" height="490" as="geometry"/>
        </mxCell>
        <mxCell id="QRuNdLmb7O2Hff4JxLJB-96" value="参数设置模块" style="rounded=0;whiteSpace=wrap;html=1;" vertex="1" parent="QRuNdLmb7O2Hff4JxLJB-155">
          <mxGeometry x="60" y="210" width="100" height="40" as="geometry"/>
        </mxCell>
        <mxCell id="QRuNdLmb7O2Hff4JxLJB-97" value="软件主体" style="rounded=0;whiteSpace=wrap;html=1;" vertex="1" parent="QRuNdLmb7O2Hff4JxLJB-155">
          <mxGeometry x="220" y="190" width="80" height="80" as="geometry"/>
        </mxCell>
        <mxCell id="QRuNdLmb7O2Hff4JxLJB-99" value="数据采集模块" style="rounded=0;whiteSpace=wrap;html=1;" vertex="1" parent="QRuNdLmb7O2Hff4JxLJB-155">
          <mxGeometry x="240" y="30" width="40" height="100" as="geometry"/>
        </mxCell>
        <mxCell id="QRuNdLmb7O2Hff4JxLJB-101" value="" style="shape=flexArrow;endArrow=classic;html=1;" edge="1" parent="QRuNdLmb7O2Hff4JxLJB-155" source="QRuNdLmb7O2Hff4JxLJB-99" target="QRuNdLmb7O2Hff4JxLJB-97">
          <mxGeometry width="50" height="50" relative="1" as="geometry">
            <mxPoint x="170" y="180" as="sourcePoint"/>
            <mxPoint x="260" y="180" as="targetPoint"/>
            <Array as="points">
              <mxPoint x="260" y="160"/>
            </Array>
          </mxGeometry>
        </mxCell>
        <mxCell id="QRuNdLmb7O2Hff4JxLJB-102" value="" style="shape=flexArrow;endArrow=classic;html=1;" edge="1" parent="QRuNdLmb7O2Hff4JxLJB-155" source="QRuNdLmb7O2Hff4JxLJB-96">
          <mxGeometry width="50" height="50" relative="1" as="geometry">
            <mxPoint x="160" y="260" as="sourcePoint"/>
            <mxPoint x="220" y="230" as="targetPoint"/>
            <Array as="points"/>
          </mxGeometry>
        </mxCell>
        <mxCell id="QRuNdLmb7O2Hff4JxLJB-103" value="数据处理模块" style="rounded=0;whiteSpace=wrap;html=1;" vertex="1" parent="QRuNdLmb7O2Hff4JxLJB-155">
          <mxGeometry x="360" y="210" width="100" height="40" as="geometry"/>
        </mxCell>
        <mxCell id="QRuNdLmb7O2Hff4JxLJB-104" value="" style="shape=flexArrow;endArrow=classic;startArrow=classic;html=1;" edge="1" parent="QRuNdLmb7O2Hff4JxLJB-155" source="QRuNdLmb7O2Hff4JxLJB-97" target="QRuNdLmb7O2Hff4JxLJB-103">
          <mxGeometry width="50" height="50" relative="1" as="geometry">
            <mxPoint y="410" as="sourcePoint"/>
            <mxPoint x="340" y="223" as="targetPoint"/>
          </mxGeometry>
        </mxCell>
        <mxCell id="QRuNdLmb7O2Hff4JxLJB-105" value="控制输出模块" style="rounded=0;whiteSpace=wrap;html=1;" vertex="1" parent="QRuNdLmb7O2Hff4JxLJB-155">
          <mxGeometry x="240" y="330" width="40" height="100" as="geometry"/>
        </mxCell>
        <mxCell id="QRuNdLmb7O2Hff4JxLJB-106" value="" style="shape=flexArrow;endArrow=classic;html=1;" edge="1" parent="QRuNdLmb7O2Hff4JxLJB-155" source="QRuNdLmb7O2Hff4JxLJB-97" target="QRuNdLmb7O2Hff4JxLJB-105">
          <mxGeometry width="50" height="50" relative="1" as="geometry">
            <mxPoint x="110" y="230" as="sourcePoint"/>
            <mxPoint x="190" y="230" as="targetPoint"/>
            <Array as="points"/>
          </mxGeometry>
        </mxCell>
        <mxCell id="QRuNdLmb7O2Hff4JxLJB-110" value="室外照度数据" style="rounded=0;whiteSpace=wrap;html=1;" vertex="1" parent="QRuNdLmb7O2Hff4JxLJB-155">
          <mxGeometry x="40" y="70" width="120" height="20" as="geometry"/>
        </mxCell>
        <mxCell id="QRuNdLmb7O2Hff4JxLJB-111" value="占位感应数据" style="rounded=0;whiteSpace=wrap;html=1;" vertex="1" parent="QRuNdLmb7O2Hff4JxLJB-155">
          <mxGeometry x="40" y="30" width="120" height="20" as="geometry"/>
        </mxCell>
        <mxCell id="QRuNdLmb7O2Hff4JxLJB-112" value="室内照度数据" style="rounded=0;whiteSpace=wrap;html=1;" vertex="1" parent="QRuNdLmb7O2Hff4JxLJB-155">
          <mxGeometry x="40" y="110" width="120" height="20" as="geometry"/>
        </mxCell>
        <mxCell id="QRuNdLmb7O2Hff4JxLJB-113" value="" style="endArrow=classic;html=1;entryX=0.013;entryY=0.092;entryDx=0;entryDy=0;entryPerimeter=0;" edge="1" parent="QRuNdLmb7O2Hff4JxLJB-155" source="QRuNdLmb7O2Hff4JxLJB-111" target="QRuNdLmb7O2Hff4JxLJB-99">
          <mxGeometry width="50" height="50" relative="1" as="geometry">
            <mxPoint x="10" y="500" as="sourcePoint"/>
            <mxPoint x="220" y="38" as="targetPoint"/>
          </mxGeometry>
        </mxCell>
        <mxCell id="QRuNdLmb7O2Hff4JxLJB-114" value="" style="endArrow=classic;html=1;entryX=0.013;entryY=0.5;entryDx=0;entryDy=0;entryPerimeter=0;" edge="1" parent="QRuNdLmb7O2Hff4JxLJB-155" source="QRuNdLmb7O2Hff4JxLJB-110" target="QRuNdLmb7O2Hff4JxLJB-99">
          <mxGeometry width="50" height="50" relative="1" as="geometry">
            <mxPoint x="130" y="110.51850809289226" as="sourcePoint"/>
            <mxPoint x="240.51999999999998" y="110" as="targetPoint"/>
          </mxGeometry>
        </mxCell>
        <mxCell id="QRuNdLmb7O2Hff4JxLJB-115" value="" style="endArrow=classic;html=1;entryX=0;entryY=0.9;entryDx=0;entryDy=0;entryPerimeter=0;" edge="1" parent="QRuNdLmb7O2Hff4JxLJB-155" source="QRuNdLmb7O2Hff4JxLJB-112" target="QRuNdLmb7O2Hff4JxLJB-99">
          <mxGeometry width="50" height="50" relative="1" as="geometry">
            <mxPoint x="140" y="90" as="sourcePoint"/>
            <mxPoint x="250.51999999999998" y="90" as="targetPoint"/>
          </mxGeometry>
        </mxCell>
        <mxCell id="QRuNdLmb7O2Hff4JxLJB-119" value="开关灯控制信号" style="rounded=0;whiteSpace=wrap;html=1;" vertex="1" parent="QRuNdLmb7O2Hff4JxLJB-155">
          <mxGeometry x="360" y="350" width="120" height="20" as="geometry"/>
        </mxCell>
        <mxCell id="QRuNdLmb7O2Hff4JxLJB-120" value="窗帘开合控制信号" style="rounded=0;whiteSpace=wrap;html=1;" vertex="1" parent="QRuNdLmb7O2Hff4JxLJB-155">
          <mxGeometry x="360" y="390" width="120" height="20" as="geometry"/>
        </mxCell>
        <mxCell id="QRuNdLmb7O2Hff4JxLJB-121" value="" style="endArrow=classic;html=1;" edge="1" parent="QRuNdLmb7O2Hff4JxLJB-155" target="QRuNdLmb7O2Hff4JxLJB-119">
          <mxGeometry width="50" height="50" relative="1" as="geometry">
            <mxPoint x="280" y="360" as="sourcePoint"/>
            <mxPoint x="240" y="360" as="targetPoint"/>
          </mxGeometry>
        </mxCell>
        <mxCell id="QRuNdLmb7O2Hff4JxLJB-123" value="" style="endArrow=classic;html=1;" edge="1" parent="QRuNdLmb7O2Hff4JxLJB-155" target="QRuNdLmb7O2Hff4JxLJB-120">
          <mxGeometry width="50" height="50" relative="1" as="geometry">
            <mxPoint x="280" y="400" as="sourcePoint"/>
            <mxPoint x="150" y="400" as="targetPoint"/>
          </mxGeometry>
        </mxCell>
      </root>
    </mxGraphModel>
  </diagram>
</mxfile>
